<svg version="1.2" xmlns="http://www.w3.org/2000/svg" viewBox="0 0 480 480" width="480" height="480"><style>.a{fill:#ffcd00}</style><path class="a" d="m307.6 13.9v170.8h-135.2v-170.8h-120.9v455.1h120.9v-171.4h135.2v171.4h120.6v-455.1z"/><path  d="m69.6 228.3v-31h-8.1v38.7h24.3v-7.7zm58.5-31v15.5h-14.5v-15.5h-8.1v38.7h8.1v-15.5h14.5v15.5h8.1v-38.7zm15.1 38.7h8.2v-38.7h-8.2zm27.3 0.8c8.7 0 14.7-4.5 14.7-11.5 0-6-4.2-9.3-10.9-12.3-4.7-2.1-7.7-2.9-7.7-5.2 0-1.9 2.2-3.6 5.3-3.6 2.2 0 4.5 0.9 5.8 3.2l5.9-4c-1.8-4.7-6.4-6.9-11.9-6.9-7.4 0-13.3 4.5-13.3 11.2 0 6.1 5 8.5 9.5 10.7 4.3 2 9.1 4.2 9.1 7 0 2.1-2.6 3.6-6.4 3.6-3.5 0-6-1.3-7.8-4l-6.5 4.4c2.7 4.8 7.6 7.4 14.2 7.4zm45.2-39.4h-28.1v7.7h10v30.9h8.1v-30.9h10zm21.8 39.4c11.5 0 21-9 21-20.1 0-11.1-9.5-20.1-21-20.1-11.6 0-21 9-21 20.1 0 11.1 9.4 20.1 21 20.1zm0-7.9c-7.1 0-12.8-5.5-12.8-12.2 0-6.8 5.7-12.3 12.8-12.3 7 0 12.8 5.5 12.8 12.3 0 6.7-5.8 12.2-12.8 12.2zm26.3 7.1h8.1v-38.6h-8.1zm46.1 0l-11.5-15.4c4.3-1.5 7.5-5.8 7.5-10.8 0-6.9-6.2-12.5-13.8-12.5h-13.2l0.1 38.7h8.1v-18.3l12.9 18.3zm-22.9-31h5.3c2.7 0 5.2 2.1 5.2 4.9 0 2.7-2.5 4.9-5.2 4.8h-5.3zm51.1 0v-7.7h-24.4v38.7h24.4v-7.7h-16.3v-8h14v-7.8h-14v-7.5zm32.8-7.7h-11.7v38.7h11.7c13.1 0 21.1-7.3 21.1-19.3 0-12.1-8-19.4-21.1-19.4zm0.1 30.9h-3.7v-23.2h3.6c8 0 12.9 4.4 12.9 11.7 0 7.2-4.9 11.5-12.8 11.5zm50.6-23.2v-7.7h-24.4v38.7h24.4v-7.7h-16.2v-8h13.9v-7.8h-13.9v-7.5z"/><path  d="m70.3 275.8v-32.7h-8.6v40.9h25.8v-8.2zm37.9 8.2h8.6v-40.9h-8.6zm57.5-41.9l-20.5 27-20.5-27h-0.5v41.9h8.6v-17.8l12.4 17.1 12.3-17.1v17.8h8.6v-41.9zm7.9 41.9h8.6v-13.3h6.5c8.2 0 15-6.2 15-13.8 0-7.6-6.8-13.8-15-13.8h-15.1zm15.1-21.5h-6.5v-11.3h6.5c3.5 0 6.4 2.5 6.4 5.6 0 3.2-2.9 5.8-6.4 5.7zm52.6 21.5l-12.2-16.3c4.6-1.5 7.9-6.1 7.9-11.4 0-7.4-6.5-13.2-14.5-13.2h-14l0.1 40.9h8.6v-19.4l13.6 19.4zm-24.2-32.8h5.5c2.9 0 5.6 2.2 5.6 5.2 0 2.9-2.6 5.1-5.6 5.1h-5.5zm28.3 32.8h8.5v-41h-8.5zm57.4-41.9l-20.5 27-20.4-27h-0.5v41.9h8.6v-17.8l12.3 17.2h0.1l12.3-17.2v17.8h8.6v-41.9zm33.7 9.1v-8.1h-25.8v40.9h25.8v-8.1h-17.2v-8.5h14.7v-8.2h-14.7v-8zm39 32.8l-12.1-16.2c4.6-1.6 7.9-6.2 7.9-11.4 0-7.4-6.6-13.3-14.5-13.3h-14v40.9h8.6v-19.3l13.6 19.3zm-24.1-32.7h5.5c2.9 0 5.5 2.2 5.5 5.1 0 2.9-2.6 5.2-5.5 5.2l-5.5-0.1zm28.2 32.8h8.6v-40.9h-8.6zm41.8-32.8v-8.1h-25.8v40.9h25.8v-8.2h-17.2v-8.4h14.8v-8.2h-14.8v-8z"/><path  d="m84.4 214.3c1.5 0.2 4.5-0.5 4.8-3.4 0.2-0.8 0-1.3-0.1-1.6-2.2-0.3-4.2-2.6-3.8-5.3 0.3-3 3.3-5.3 6.9-4.9 3.8 0.5 5.8 3.6 5.2 8.1-0.6 5-4.4 9.8-9.6 9.2-2.1-0.2-3.5-1.5-3.4-2.1z"/><path  d="m88.3 260c1.5 0.2 4.5-0.6 4.8-3.4 0.2-0.9 0-1.3-0.1-1.7-2.2-0.2-4.2-2.5-3.9-5.3 0.4-2.9 3.4-5.3 7-4.8 3.8 0.4 5.8 3.6 5.2 8-0.6 5-4.4 9.9-9.6 9.3-2.1-0.3-3.5-1.5-3.4-2.1z"/></svg>