<svg version="1.2" xmlns="http://www.w3.org/2000/svg" viewBox="0 0 788 218" width="788" height="218"><style>.a{fill:#ffd200}</style><path class="a" d="m43.2 99.5v-79.9h-27.3v106.4h66.7v-26.5zm148.6-79.9v39.9h-30.5v-39.9h-27.3v106.4h27.3v-40.1h30.5v40.1h27.3v-106.4zm45.1 106.4h27.2v-106.4h-27.2zm77.2 1.4c20.6 0 38.8-12.6 38.8-32.9 0-15.7-10.6-25.9-26.7-32.9-11.1-4.8-18.4-6.4-18.4-11.3 0-3.6 4.1-6.6 9.7-6.6 4.9 0 12.8 2.5 15.8 8.1l15.8-15.7c-4-10.5-16.3-18.2-32-18.2-19.5 0-36.4 13.2-36.4 31.6 0 16 11.2 24.9 24.2 30.7 10.1 4.6 20.6 9.4 20.6 14.9 0 4.4-5.7 6.6-11.5 6.6-8.6 0-16.6-4-20.8-10.5l-16.6 16.7c5.2 11.8 20.6 19.5 37.5 19.5zm121.7-107.9h-76.6v26.4h24.7v80.1h27.3v-80.1h24.6zm58.4 109.2c32.1 0 56.6-24.1 56.6-55.8 0-32-24.5-56.2-56.5-56.2-31.9 0-56.4 24.2-56.4 56.2 0 31.7 24.4 55.8 56.3 55.8zm0.1-27c-16.3 0-28.8-12.6-28.8-29 0-16.5 12.5-29.1 28.8-29.1 16.3 0 28.8 12.6 28.8 29.1 0 16.4-12.5 29-28.8 29zm69.8 24.3h27.3v-106.5h-27.3zm132.1 0l-27.6-42.7c10.1-4.8 17.8-15.9 17.8-29.1 0-19.1-15.9-34.6-38.1-34.6h-39l0.1 106.4h27.3v-46.2l27.5 46.2zm-59.6-81h11.2c5.7 0 11.1 4.1 11.1 10.7 0 6.5-5.3 10.8-11.1 10.7l-11.2-0.1zm136.1 0.9v-26.3h-66.7v106.4h66.7v-26.4h-39.7v-15.3h32.7v-23.6h-32.7v-14.8z"/><path class="a" d="m30.5 136.3h-14.7v46.7h14.7c15.3 0 24.7-8.8 24.7-23.3 0-14.6-9.4-23.5-24.7-23.4zm-0.2 35h-2.9v-23.4h2.8c8.1 0 13 4.4 13 11.8 0 7.2-4.9 11.6-12.9 11.6zm60-23.5v-11.5h-29.2v46.7h29.2v-11.6h-17.4v-6.7h14.4v-10.4h-14.4v-6.5z"/><path class="a" d="m155.4 185.1v-54.1h-18.5v72h45.1v-17.9zm61.4 17.9h18.4v-72h-18.4zm97.6-72.6l-29.9 42.3-29.8-42.3h-7.4v72.6h18.4v-28.5l18.8 27.3h0.1l18.7-27.3v28.5h18.5v-72.6zm19.5 72.6h18.4v-21.2h7.8c14.6 0 26.3-11.6 26.3-25.5 0-14.1-11.9-25.2-26.3-25.2h-26.2zm26.2-38.8l-7.8-0.1v-15.5h7.8c5 0 8.5 3.3 8.5 7.7 0 4.4-3.5 7.9-8.5 7.9zm92.9 38.8l-18.7-28.9c6.9-3.2 12.1-10.7 12.1-19.7 0-12.9-10.8-23.4-25.8-23.4h-26.4l0.1 72h18.5v-31.3l18.6 31.3zm-40.3-54.8h7.5c3.9 0 7.5 2.8 7.5 7.2 0 4.4-3.5 7.3-7.5 7.3l-7.5-0.1zm46.9 54.8h18.5v-72h-18.5zm97.6-72.6l-29.8 42.3-29.9-42.3h-7.4v72.6h18.5v-28.5l18.7 27.3h0.2l18.7-27.3v28.5h18.4v-72.6zm64.6 18.4v-17.7h-45.1v71.9h45.1v-17.9h-26.8v-10.3h22v-15.9h-22v-10.1zm69 54.2l-18.7-28.9c6.8-3.2 12.1-10.7 12.1-19.7 0-12.9-10.8-23.3-25.8-23.3h-26.4l0.1 71.9h18.5v-31.2l18.6 31.2zm-40.3-54.8h7.5c3.9 0 7.5 2.8 7.5 7.3 0 4.4-3.6 7.3-7.5 7.2h-7.5zm46.9 54.7h18.4v-71.9h-18.4zm75.6-54.2v-17.8h-45.1v72h45.1v-17.9h-26.8v-10.3h22v-16h-22v-10z"/><path class="a" d="m185.4 155.7c2.4 0 6.7-1.7 6.7-6.2 0-1.4-0.3-2-0.6-2.6-3.3 0-6.8-3.2-6.8-7.6 0-4.7 4-8.9 9.6-8.9 5.7 0 9.4 4.6 9.4 11.6 0 8-4.7 16.4-12.6 16.4-3.4 0-5.7-1.7-5.7-2.7z"/><path class="a" d="m76.2 70.7c4.9 0 14-3.6 14-13.2 0-2.9-0.6-4.2-1.3-5.3-6.9 0-14.2-6.9-14.2-16 0-10 8.4-18.8 20-18.8 12.1 0 19.8 9.7 19.8 24.5 0 16.8-9.8 34.3-26.5 34.3-7 0-11.8-3.6-11.8-5.5z"/></svg>